<svg width="125" height="136" viewBox="0 0 125 136" fill="none" xmlns="http://www.w3.org/2000/svg">
<path d="M82.7655 79.9414C78.5488 82.7518 73.9484 84.6113 69.016 85.6708C60.4315 87.5142 51.9862 86.9533 43.9027 83.5499C29.8669 77.6395 21.0995 67.013 17.9245 52.004C15.4434 40.2758 17.6343 29.1949 24.2884 19.2539C31.4832 8.50069 41.5886 2.09582 54.354 0.401125C65.3559 -1.05837 75.5408 1.46257 84.6064 8.00214C92.9265 14.0029 98.513 22.0201 101.211 32.0295C101.487 33.0547 101.771 34.09 101.829 35.1635C101.851 35.8832 101.519 35.9616 100.962 35.6621C100.306 35.3083 99.6641 34.9143 98.9802 34.6208C96.7655 33.6719 94.5468 32.6888 92.4116 31.6133C89.5806 30.186 86.6621 28.9517 83.841 27.5042C80.6204 25.8517 77.183 24.6496 73.9643 22.971C73.2148 22.006 72.5369 20.9888 71.6064 20.1646C69.1035 17.9452 66.1452 16.9038 62.8987 16.4455C60.3222 16.0816 60.8768 16.2384 60.8251 18.1663C60.8192 18.3673 60.8172 18.5664 60.8172 18.7674C60.8212 22.6393 60.6959 26.5131 60.8609 30.385C60.5985 30.0252 60.7138 29.611 60.7138 29.221C60.7078 25.1803 60.7178 21.1416 60.7078 17.1008C60.7078 16.7752 60.9106 16.2444 60.3798 16.2062C59.9643 16.1761 59.3619 15.8183 59.1114 16.548C58.855 16.1741 58.4852 16.2706 58.1233 16.2927C56.6005 16.3832 55.1293 16.7289 53.6621 17.137C49.5866 18.2688 46.6542 20.7697 44.9762 24.6777C43.2446 28.7104 43.7396 32.9823 43.8649 37.204C43.8629 37.8332 43.8609 38.4645 43.8589 39.0937C43.7337 45.0744 43.3202 51.0832 43.8053 57.0338C44.5707 66.4039 51.179 69.3812 58.0299 70.1149C59.5567 70.2778 61.1253 70.0405 62.674 69.9883C62.2088 70.3481 61.6045 69.9943 61.0518 70.2918C61.7933 70.4647 62.4792 70.3562 63.1691 70.5371C64.6721 70.9291 65.9504 71.7875 67.3559 72.3745C68.8371 72.9937 70.3798 73.4681 71.845 74.0933C74.354 75.1648 76.7158 76.5821 79.1929 77.736C80.0339 78.128 80.8231 78.7412 81.8072 78.7734C82.5806 78.7995 82.8609 79.1975 82.7635 79.9353L82.7655 79.9414Z" fill="#C5222B"/>
<path d="M59.1135 16.5521C59.364 15.8223 59.9644 16.1802 60.3819 16.2103C60.9107 16.2485 60.7079 16.7792 60.7099 17.1049C60.7199 21.1456 60.7099 25.1844 60.7159 29.2251C60.7159 29.6151 60.5986 30.0292 60.863 30.3891C62.4992 31.4063 63.2348 32.8497 62.9207 34.7997C62.8372 35.3164 62.8093 35.8431 62.7318 36.3597C62.6463 36.9387 62.7974 37.198 63.4495 37.2C67.3779 37.2141 71.3044 37.2644 75.2328 37.3146C75.6761 37.3207 75.8988 37.2141 75.9008 36.7135C75.9167 32.0375 76.5747 27.2711 73.9664 22.973C77.1851 24.6516 80.6224 25.8538 83.8431 27.5063C86.6642 28.9537 89.5827 30.188 92.4137 31.6154C94.5469 32.6929 96.7676 33.6739 98.9823 34.6228C99.6662 34.9163 100.306 35.3083 100.964 35.6642C101.521 35.9637 101.853 35.8853 101.831 35.1656C102.662 38.2916 102.923 41.488 102.768 44.7025C102.292 54.4827 99.1075 63.2638 93.03 70.9111C90.1533 74.5316 86.7775 77.6155 82.7676 79.9414C82.865 79.2036 82.5847 78.8036 81.8113 78.7794C80.8272 78.7473 80.038 78.1341 79.197 77.7421C76.7199 76.5882 74.358 75.1709 71.8491 74.0994C70.3839 73.4742 68.8431 72.9998 67.36 72.3806C65.9564 71.7936 64.6761 70.9352 63.1731 70.5432C62.4833 70.3622 61.7974 70.4728 61.0558 70.2979C61.6085 69.9984 62.2129 70.3542 62.6781 69.9944C63.0678 69.92 63.4555 69.8416 63.8451 69.7692C67.6026 69.0676 70.9028 67.5679 73.2189 64.3212C75.0678 61.7299 75.8451 58.8009 75.859 55.6548C75.8829 50.44 75.8391 45.2252 75.865 40.0105C75.869 39.3169 75.6264 39.1621 75.0181 39.1641C71.1831 39.1822 67.3481 39.1842 63.5151 39.1762C63.0519 39.1762 62.8173 39.3812 62.5926 39.7692C61.2209 42.1434 58.4972 42.1032 57.1712 39.6888C56.9763 39.335 56.7914 39.0978 56.358 39.0978C52.193 39.1038 48.028 39.0978 43.865 39.0978C43.867 38.4685 43.869 37.8373 43.871 37.2081C47.9048 37.2242 51.9385 37.2222 55.9704 37.2744C56.6384 37.2825 56.7338 37.0332 56.7199 36.4602C56.694 35.3908 56.7179 34.3213 56.7517 33.2518C56.7875 32.1159 57.3779 31.2616 58.3203 30.7529C58.857 30.4635 58.9863 30.1539 58.9902 29.591C59.0161 25.2447 59.0717 20.9004 59.1175 16.5541L59.1135 16.5521Z" fill="#791A25"/>
<path d="M0.0161237 100.43C0.0161237 97.2541 0.0379925 94.0778 0.000219136 90.9015C-0.00773315 90.1778 0.199026 89.9828 0.902804 90.023C2.12149 90.0914 3.34813 90.0894 4.56881 90.0391C5.28849 90.011 5.44952 90.2763 5.44356 90.9679C5.39187 96.7174 5.29247 102.469 5.50121 108.218C5.52905 108.984 5.59465 109.756 5.73183 110.508C6.08769 112.472 7.12746 113.5 9.07179 113.805C10.1851 113.98 11.3183 113.984 12.4336 113.823C14.2328 113.566 15.4455 112.297 15.8113 110.384C16.0559 109.097 16.0956 107.792 16.0996 106.488C16.1135 101.339 16.1414 96.1887 16.0996 91.0402C16.0917 90.1477 16.368 89.9627 17.1692 90.021C18.4197 90.1115 19.6801 90.1195 20.9346 90.1175C21.4038 90.1175 21.5827 90.2522 21.5728 90.7407C21.4416 97.1576 21.8193 103.579 21.3879 109.99C21.2746 111.664 20.7577 113.258 20.0459 114.78C18.9286 117.172 16.9724 118.397 14.4595 118.732C11.8949 119.074 9.31036 119.062 6.74376 118.732C3.82527 118.356 1.98431 116.614 1.01016 113.865C0.228847 111.662 0.0618493 109.364 0.0399806 107.052C0.0200998 104.845 0.0360044 102.64 0.0360044 100.432H0.0141356L0.0161237 100.43Z" fill="white"/>
<path d="M82.879 103.364C82.879 108.176 82.869 112.989 82.8909 117.802C82.8949 118.495 82.7815 118.835 81.9804 118.759C81.0957 118.674 80.1891 118.668 79.3084 118.771C78.4396 118.871 78.1633 118.483 77.9963 117.719C77.7537 116.595 77.7199 116.618 76.7219 117.263C74.8591 118.471 72.8173 119.044 70.6066 118.907C67.7279 118.728 65.8313 116.925 65.1374 113.731C64.3541 110.12 64.4018 106.488 65.0639 102.875C65.5748 100.087 67.0996 97.8492 70.7915 97.7366C72.7577 97.6763 74.5728 98.1367 76.4038 98.7177C77.4595 99.0534 77.4992 98.9871 77.5032 97.8874C77.5112 94.8136 77.545 91.7379 77.5251 88.6641C77.5211 88.1092 77.6782 87.9806 78.1911 87.9967C79.4794 88.0349 80.7716 88.073 82.0559 88.0127C82.7975 87.9786 82.9187 88.264 82.9147 88.9274C82.8909 93.7401 82.9028 98.5528 82.9028 103.366C82.8949 103.366 82.8869 103.366 82.879 103.366V103.364ZM77.5251 107.877H77.4873C77.4873 106.339 77.4853 104.799 77.4873 103.261C77.4873 102.865 77.4336 102.596 76.9485 102.471C75.5251 102.109 74.0817 102.037 72.6265 102.011C71.4535 101.99 70.7478 102.632 70.4694 103.705C69.7418 106.504 69.8551 109.33 70.3243 112.155C70.378 112.476 70.537 112.79 70.698 113.079C71.213 114.008 71.9466 114.577 73.0678 114.497C74.3263 114.404 75.4833 113.944 76.6583 113.534C77.3303 113.299 77.5589 112.9 77.537 112.191C77.4893 110.753 77.5231 109.314 77.5231 107.877H77.5251Z" fill="white"/>
<path d="M103.279 110.707C103.279 113.116 103.263 115.524 103.288 117.932C103.294 118.562 103.149 118.833 102.457 118.767C101.704 118.692 100.935 118.702 100.179 118.767C99.1752 118.853 98.5986 118.425 98.4137 117.454C98.2607 116.646 97.9426 116.587 97.2984 117.054C95.1374 118.624 92.7418 119.311 90.0897 118.757C87.5807 118.234 85.9923 116.328 85.8829 113.757C85.8451 112.888 85.8491 112.018 85.871 111.15C85.9505 107.903 87.9446 106.057 91.195 105.899C93.1434 105.804 95.0976 105.842 97.0499 105.868C97.7815 105.878 98.1394 105.722 97.8511 104.903C97.7776 104.694 97.8392 104.439 97.8352 104.206C97.8113 102.559 97.2666 101.932 95.6463 101.962C92.9028 102.013 90.1593 102.131 87.4197 102.276C86.7358 102.312 86.4098 102.182 86.541 101.434C86.5748 101.239 86.5489 101.034 86.5489 100.833C86.5549 98.774 86.5569 98.7861 88.5012 98.3318C91.4296 97.6482 94.4078 97.5678 97.3839 97.7166C99.5171 97.8231 101.39 98.579 102.531 100.587C103.042 101.484 103.199 102.483 103.215 103.486C103.249 105.895 103.227 108.303 103.227 110.711C103.243 110.711 103.261 110.711 103.277 110.711L103.279 110.707ZM97.9605 111.089C97.9605 111.089 97.9485 111.089 97.9406 111.089C97.9406 110.756 97.9028 110.418 97.9485 110.09C98.0678 109.228 97.7119 109.093 96.9306 109.222C95.863 109.399 94.7736 109.453 93.6901 109.511C91.4555 109.63 91.3561 109.889 91.2786 112.046C91.2646 112.412 91.2785 112.78 91.3084 113.146C91.378 114.042 91.8233 114.511 92.7577 114.571C94.3362 114.674 95.7318 114.155 97.1155 113.482C97.7318 113.182 98.044 112.792 97.9664 112.088C97.9306 111.759 97.9605 111.423 97.9605 111.089Z" fill="white"/>
<path d="M61.5964 110.44C61.5964 112.947 61.5845 115.456 61.6064 117.962C61.6103 118.535 61.501 118.815 60.8429 118.765C59.9881 118.698 59.1252 118.73 58.2664 118.751C57.4652 118.769 56.9821 118.477 56.7912 117.625C56.5328 116.469 56.4751 116.491 55.491 117.166C52.9682 118.899 50.2604 119.545 47.334 118.367C45.5308 117.641 44.4592 116.232 44.2684 114.276C44.1531 113.085 44.1769 111.865 44.2763 110.671C44.5169 107.776 46.4374 106.001 49.4215 105.899C51.4354 105.83 53.4553 105.83 55.4712 105.856C56.1451 105.864 56.3221 105.665 56.2604 104.99C55.996 102.097 55.7694 101.852 52.8569 101.938C50.4771 102.009 48.0994 102.121 45.7237 102.26C45.0437 102.3 44.6958 102.165 44.8747 101.406C44.9046 101.277 44.8907 101.14 44.8946 101.005C44.9722 98.778 44.9682 98.7619 47.1829 98.2674C50.0795 97.6201 53.0199 97.5397 55.9642 97.7548C58.9523 97.9739 61.7077 99.7189 61.5726 103.922C61.503 106.094 61.5606 108.269 61.5606 110.442H61.5944L61.5964 110.44ZM56.2167 111.069C56.2167 110.603 56.2068 110.136 56.2187 109.67C56.2286 109.29 56.0895 109.133 55.6899 109.171C54.2545 109.306 52.8131 109.401 51.3777 109.541C50.664 109.612 50.0318 109.855 49.7058 110.591C48.6481 112.973 49.8708 114.778 52.3837 114.547C53.1511 114.477 53.8588 114.223 54.5487 113.896C55.7376 113.33 56.2929 112.388 56.2147 111.069H56.2167Z" fill="white"/>
<path d="M115.131 97.8252C116.954 97.8273 118.465 97.8936 119.942 98.3439C122.312 99.0676 123.76 100.676 124.332 103.062C125.187 106.62 125.235 110.207 124.414 113.781C123.742 116.708 121.793 118.254 118.946 118.69C116.583 119.052 114.201 119.042 111.851 118.552C108.99 117.957 107.3 116.127 106.68 113.279C105.99 110.098 106.05 106.904 106.67 103.726C107.356 100.201 109.507 98.2756 113.058 97.9318C113.847 97.8554 114.64 97.8474 115.133 97.8232L115.131 97.8252ZM119.638 107.784C119.581 106.952 119.549 106.118 119.461 105.288C119.255 103.315 118.505 102.352 116.67 102.176C113.666 101.886 111.885 102.256 111.648 106.082C111.549 107.682 111.523 109.286 111.662 110.884C111.905 113.681 112.805 114.519 115.551 114.549C115.98 114.553 116.41 114.551 116.837 114.515C118.302 114.392 118.915 113.9 119.261 112.46C119.63 110.926 119.656 109.356 119.638 107.784Z" fill="white"/>
<path d="M30.5669 114.45C31.9228 114.45 33.2786 114.465 34.6345 114.446C36.1772 114.424 36.378 114.213 36.4695 112.645C36.5629 111.063 36.3025 110.782 34.71 110.764C32.8592 110.743 31.0023 110.8 29.1554 110.693C26.3542 110.532 24.7597 108.86 24.553 106.029C24.4377 104.457 24.382 102.883 24.7478 101.337C25.2051 99.4093 26.5709 98.0202 28.4516 97.9397C32.3462 97.7729 36.2528 97.6643 40.0997 98.5931C40.6762 98.7318 40.889 98.959 40.8373 99.5279C40.7916 100.026 40.716 100.541 40.7876 101.028C40.9546 102.178 40.39 102.304 39.4337 102.284C36.7558 102.23 34.0759 102.264 31.3959 102.288C30.0639 102.3 29.9705 102.419 29.9168 103.766C29.8333 105.881 29.9466 105.979 32.0878 106.051C34.0659 106.12 36.056 105.808 38.0202 106.264C40.3005 106.795 41.4755 108.134 41.714 110.494C41.889 112.233 41.9526 113.974 41.5093 115.679C41.0421 117.466 39.8949 118.7 38.054 118.783C34.0937 118.962 30.1275 118.974 26.2091 118.145C25.5132 117.999 25.3283 117.631 25.3085 116.961C25.2329 114.398 25.215 114.404 27.6862 114.44C28.6444 114.455 29.6047 114.442 30.5629 114.442C30.5629 114.442 30.5629 114.444 30.5629 114.446L30.5669 114.45Z" fill="white"/>
<path d="M54.8192 131.056C54.8192 129.751 54.8192 128.448 54.8192 127.143C54.8192 126.78 54.7218 126.305 55.2685 126.335C55.8411 126.366 56.6304 125.909 56.9425 126.653C57.2765 127.449 57.6145 127.288 58.1174 126.932C59.5647 125.909 60.9982 125.863 62.356 127.085C62.859 127.538 63.2327 127.148 63.5926 126.938C64.4793 126.424 65.3918 126.102 66.4256 126.253C67.7675 126.448 68.5608 127.148 68.7238 128.494C69.0001 130.79 68.7198 133.104 68.849 135.408C68.8709 135.786 68.6125 135.81 68.3321 135.848C66.5389 136.085 66.4057 135.973 66.4375 134.143C66.4673 132.505 66.5111 130.869 66.4176 129.228C66.3799 128.555 66.1174 128.245 65.4614 128.269C65.3302 128.273 65.197 128.263 65.0657 128.271C63.6966 128.358 63.0074 129.095 62.9982 130.481C62.9902 132.019 62.9644 133.558 63.016 135.096C63.0359 135.693 62.851 135.828 62.2983 135.83C60.523 135.834 60.4972 135.854 60.5886 134.011C60.6681 132.404 60.6383 130.804 60.5608 129.198C60.529 128.545 60.2785 128.346 59.6562 128.328C57.4156 128.269 57.2646 128.39 57.2546 130.654C57.2486 132.091 57.2407 133.53 57.2944 134.966C57.3182 135.591 57.2069 135.846 56.5051 135.838C54.7556 135.818 54.7576 135.858 54.7715 134.061C54.7795 133.058 54.7715 132.055 54.7715 131.052C54.7874 131.052 54.8033 131.052 54.8192 131.052V131.056Z" fill="white"/>
<path d="M106.74 132.214C106.74 133.082 106.76 133.951 106.73 134.819C106.718 135.173 106.994 135.732 106.402 135.816C105.839 135.895 105.092 136.104 104.742 135.533C104.281 134.781 103.931 135 103.408 135.382C102.324 136.176 100.436 136.13 99.6225 135.33C98.704 134.427 98.4873 132.061 99.2249 131.014C99.7298 130.296 100.481 130.055 101.288 129.994C102.012 129.94 102.742 129.982 103.467 129.954C103.843 129.938 104.424 130.181 104.356 129.419C104.308 128.867 104.354 128.203 103.523 128.207C102.334 128.213 101.147 128.249 99.9585 128.272C99.5907 128.28 99.0698 128.507 99.0718 127.855C99.0738 127.369 98.9525 126.774 99.7298 126.609C101.324 126.273 102.909 126.018 104.537 126.346C105.891 126.617 106.525 127.22 106.626 128.615C106.714 129.809 106.644 131.016 106.644 132.216C106.674 132.216 106.706 132.216 106.736 132.216L106.74 132.214ZM101.255 132.662C101.225 133.921 101.454 134.128 102.589 133.925C102.943 133.86 103.296 133.762 103.636 133.641C104.493 133.335 104.497 132.545 104.412 131.882C104.31 131.092 103.644 131.542 103.207 131.534C102.943 131.53 102.678 131.572 102.416 131.564C101.589 131.532 101.153 131.878 101.259 132.664L101.255 132.662Z" fill="white"/>
<path d="M78.0121 132.071C78.0121 132.972 78.0439 133.874 77.9962 134.773C77.9783 135.121 78.2885 135.689 77.7318 135.794C77.1493 135.905 76.372 136.16 75.9863 135.527C75.527 134.773 75.2308 134.974 74.692 135.402C73.6821 136.204 72.4892 136.098 71.3978 135.677C70.4415 135.31 70.1652 134.383 70.1095 133.38C69.9704 130.877 70.7318 130.014 73.197 129.962C73.692 129.952 74.193 130 74.6801 129.94C75.0201 129.898 75.6344 130.294 75.6225 129.498C75.6125 128.85 75.6026 128.173 74.6682 128.197C73.5151 128.229 72.36 128.247 71.205 128.285C70.8491 128.298 70.3799 128.454 70.3958 127.889C70.4077 127.443 70.2388 126.822 70.9266 126.645C72.6344 126.207 74.3541 125.931 76.1056 126.356C77.2487 126.633 77.9246 127.516 77.9843 128.866C78.03 129.932 77.9942 131.001 77.9942 132.071H78.0121ZM72.527 132.642C72.523 133.93 72.7358 134.115 73.9346 133.922C74.1294 133.89 74.3222 133.84 74.5131 133.79C75.4415 133.549 75.8968 132.801 75.6264 131.822C75.3898 130.969 74.7497 131.596 74.3004 131.538C74.0439 131.504 73.7755 131.58 73.5131 131.588C72.7894 131.613 72.3759 131.906 72.527 132.64V132.642Z" fill="white"/>
<path d="M45.9205 131.08C46.1273 135.675 43.6223 136.574 39.5627 135.605C38.5289 135.358 37.8987 134.501 37.6541 133.478C37.2685 131.864 37.2844 130.219 37.6899 128.609C38.0895 127.025 39.6641 126.13 41.7058 126.241C42.0359 126.259 42.3639 126.307 42.6919 126.345C44.6541 126.575 45.6422 127.588 45.8291 129.58C45.8768 130.079 45.8907 130.581 45.9205 131.082V131.08ZM39.849 131.07C39.8291 131.07 39.8092 131.072 39.7893 131.074C39.841 131.671 39.839 132.28 39.9563 132.863C40.1313 133.729 40.7675 134.021 41.5806 133.989C42.3559 133.956 43.1094 133.922 43.3241 132.903C43.5746 131.707 43.6044 130.525 43.344 129.331C43.2526 128.915 43.0796 128.575 42.684 128.396C41.2148 127.731 39.9623 128.47 39.853 130.071C39.8291 130.402 39.849 130.738 39.849 131.07Z" fill="white"/>
<path d="M21.0159 131.052C21.0159 129.783 21.004 128.513 21.0239 127.244C21.0299 126.918 20.8052 126.36 21.338 126.349C21.9444 126.339 22.7933 125.949 23.1293 126.713C23.4414 127.423 23.7654 127.252 24.167 126.973C24.8947 126.468 25.6621 126.152 26.5647 126.217C28.1472 126.329 29.181 127.379 29.1969 128.983C29.2167 130.987 29.179 132.992 29.2028 134.994C29.2088 135.585 29.0478 135.89 28.4235 135.81C28.3579 135.802 28.2923 135.81 28.2247 135.81C26.4653 135.804 26.7575 136.003 26.7515 134.349C26.7456 132.646 26.7416 130.941 26.7853 129.24C26.8052 128.486 26.4831 128.209 25.7893 128.249C25.6581 128.257 25.5249 128.249 25.3937 128.259C23.4613 128.418 23.4434 128.434 23.4315 130.404C23.4235 131.908 23.3857 133.412 23.4394 134.911C23.4653 135.611 23.2744 135.923 22.5686 135.832C22.4394 135.816 22.3022 135.81 22.173 135.832C21.2386 135.993 20.8887 135.657 20.9662 134.658C21.0597 133.464 20.9881 132.256 20.9881 131.054H21.01L21.0159 131.052Z" fill="white"/>
<path d="M31.7219 131.968C31.7219 130.967 31.7 129.966 31.7299 128.965C31.7458 128.432 31.6444 128.155 31.0281 128.209C30.6901 128.239 30.1374 128.346 30.2328 127.664C30.3024 127.162 30.0678 126.426 31.0062 126.502C31.6444 126.555 31.8173 126.211 31.7179 125.638C31.712 125.606 31.7179 125.572 31.7159 125.537C31.5271 121.967 32.8909 121.531 35.9287 121.941C36.6921 122.043 36.8312 122.522 36.8372 123.113C36.8452 123.841 36.3044 123.714 35.8432 123.69C35.5131 123.672 35.1831 123.69 34.8551 123.668C34.3879 123.64 34.1951 123.893 34.1732 124.323C34.1593 124.59 34.1931 124.862 34.1533 125.123C34.0122 126.088 34.2945 126.565 35.3581 126.358C35.7756 126.275 36.366 126.171 36.2289 126.983C36.1314 127.56 36.4953 128.486 35.3362 128.281C34.2229 128.084 34.036 128.603 34.0817 129.602C34.1613 131.367 34.0798 133.14 34.1175 134.907C34.1314 135.563 34.0161 135.866 33.2646 135.842C31.6603 135.792 31.6623 135.836 31.6861 134.172C31.6961 133.438 31.6861 132.704 31.6861 131.968H31.7219Z" fill="white"/>
<path d="M92.5329 90.417C93.6542 90.405 94.4613 90.6884 95.2108 91.1267C96.682 91.9831 98.0896 91.8142 99.509 90.9799C99.849 90.7809 100.219 90.214 100.69 90.6904C101.32 91.3297 101.493 92.5721 101.098 93.0646C99.4633 95.095 97.0597 95.7263 94.841 94.5482C93.2108 93.6838 91.7078 93.7883 90.1393 94.6186C89.8251 94.7855 89.3858 95.4529 89.0836 94.8759C88.7536 94.2447 87.8609 93.5491 88.5766 92.7349C89.682 91.4785 90.9345 90.3768 92.5329 90.415V90.417Z" fill="white"/>
<path d="M95.3957 133.948C95.9205 133.906 96.2863 133.828 96.6422 133.862C96.9941 133.896 97.5925 133.44 97.6501 134.184C97.6998 134.821 97.7853 135.605 96.835 135.732C95.3937 135.923 93.9464 136.085 92.4971 135.82C91.3857 135.617 90.7893 134.807 90.507 133.814C90.0259 132.119 89.9961 130.382 90.4016 128.661C90.7654 127.121 91.7336 126.345 93.2903 126.291C94.5527 126.247 95.7873 126.488 97.0259 126.697C97.6422 126.8 97.5905 127.224 97.5885 127.67C97.5885 128.193 97.342 128.346 96.845 128.334C95.7893 128.31 94.7336 128.348 93.678 128.348C93.2128 128.348 92.9543 128.547 92.8549 129.023C92.5706 130.378 92.5428 131.731 92.8311 133.086C92.9523 133.655 93.2963 133.946 93.8748 133.948C94.4354 133.948 94.998 133.948 95.3977 133.948H95.3957Z" fill="white"/>
<path d="M80.5349 130.788C80.5349 130.386 80.525 129.986 80.5369 129.584C80.5608 128.824 80.8391 127.897 79.4793 128.179C79.2029 128.235 78.9544 128.032 79.0121 127.686C79.0737 127.318 78.9325 126.745 79.4812 126.715C80.6184 126.655 80.7437 125.953 80.7834 125.027C80.8391 123.762 81.3341 123.45 82.5727 123.72C82.857 123.782 82.9584 123.929 82.9464 124.202C82.9345 124.47 82.9305 124.737 82.9325 125.004C82.9464 126.337 82.9484 126.359 84.2626 126.337C84.7675 126.329 85.1492 126.361 85.016 126.999C84.9146 127.483 85.3301 128.344 84.2566 128.189C83.1612 128.032 82.8292 128.516 82.9305 129.584C83.0319 130.645 82.9743 131.721 83.0001 132.79C83.016 133.512 83.3162 134.033 84.0896 134.085C84.9783 134.143 84.9524 134.767 84.8987 135.38C84.8351 136.117 84.2486 135.866 83.8272 135.902C83.7297 135.91 83.6303 135.88 83.5309 135.872C81.2963 135.687 80.7039 135.086 80.5667 132.792C80.527 132.127 80.5608 131.456 80.5608 130.786C80.5528 130.786 80.5429 130.786 80.5349 130.786V130.788Z" fill="white"/>
<path d="M47.4556 131.026C47.4556 129.723 47.4973 128.418 47.4396 127.118C47.4078 126.424 47.6265 126.213 48.2786 126.327C48.873 126.432 49.6245 126.074 49.8373 127.101C49.9387 127.586 50.3263 127.19 50.5251 127.061C51.2229 126.609 51.9029 126.201 52.8015 126.279C53.3124 126.323 53.6305 126.386 53.5669 126.997C53.5391 127.26 53.551 127.534 53.5868 127.797C53.6882 128.549 53.378 128.744 52.6444 128.75C50.0182 128.774 49.9744 128.842 49.9168 131.418C49.889 132.652 49.8472 133.89 49.881 135.125C49.8969 135.73 49.6683 135.872 49.1315 135.848C47.0142 135.75 47.4158 136.166 47.4297 134.134C47.4357 133.098 47.4297 132.063 47.4297 131.028H47.4556V131.026Z" fill="white"/>
<path d="M86.2009 130.971C86.2009 129.604 86.2188 128.237 86.191 126.87C86.181 126.446 86.2586 126.301 86.7198 126.285C88.684 126.217 88.696 126.197 88.69 128.175C88.682 130.443 88.6264 132.71 88.6363 134.978C88.6423 136.397 87.6025 135.69 87.0021 135.832C86.3262 135.993 86.1771 135.597 86.195 134.972C86.2347 133.639 86.2069 132.304 86.2069 130.969H86.2009V130.971Z" fill="white"/>
<path d="M16.9983 130.977C16.9983 129.606 17.0281 128.235 16.9804 126.866C16.9665 126.456 17.038 126.301 17.4337 126.333C17.4675 126.335 17.4993 126.337 17.5331 126.339C19.6186 126.502 19.376 125.847 19.3919 128.175C19.4058 130.449 19.3681 132.724 19.4098 134.998C19.4217 135.661 19.2428 135.854 18.5867 135.844C16.8571 135.818 16.8591 135.848 16.875 134.089C16.885 133.052 16.875 132.017 16.875 130.979C16.9168 130.979 16.9565 130.979 16.9983 130.979V130.977Z" fill="white"/>
<path d="M18.0956 125.3C16.8372 125.298 16.8929 125.294 16.8273 123.851C16.7855 122.952 17.2149 122.882 17.9048 122.9C19.4436 122.938 19.4455 122.918 19.4376 124.277C19.4336 124.962 18.9863 125.303 18.0956 125.3Z" fill="white"/>
<path d="M87.39 125.322C85.9426 125.382 86.2548 125.459 86.1593 123.808C86.0758 122.347 87.1613 123.087 87.7478 122.934C88.5291 122.729 88.7756 123.103 88.7518 123.893C88.7061 125.316 88.7458 125.318 87.39 125.324V125.322Z" fill="white"/>
<path d="M75.9764 122.606C76.2368 122.655 76.6225 122.433 76.7775 122.739C76.9604 123.101 76.5708 123.322 76.362 123.553C75.7139 124.269 75.2169 125.208 74.028 125.135C73.6702 125.113 73.4873 125.005 73.6762 124.677C74.036 124.05 74.4257 123.439 74.8511 122.856C75.1215 122.486 75.5767 122.643 75.9764 122.606Z" fill="white"/>
<path d="M43.8611 39.0999C48.0261 39.0999 52.1912 39.1059 56.3542 39.0999C56.7896 39.0999 56.9745 39.3351 57.1673 39.6909C58.4914 42.1053 61.215 42.1455 62.5888 39.7713C62.8134 39.3833 63.048 39.1762 63.5112 39.1783C67.3462 39.1863 71.1812 39.1843 75.0142 39.1662C75.6226 39.1642 75.8651 39.319 75.8611 40.0125C75.8353 45.2273 75.879 50.4421 75.8552 55.6568C75.8413 58.803 75.0639 61.732 73.215 64.3233C70.8989 67.568 67.5987 69.0697 63.8413 69.7713C63.4516 69.8436 63.0639 69.92 62.6743 69.9964C61.1236 70.0487 59.555 70.2879 58.0281 70.1231C51.1772 69.3893 44.5689 66.412 43.8035 57.0419C43.3184 51.0914 43.7319 45.0846 43.8572 39.1019L43.8611 39.0999Z" fill="#EDEDED"/>
<path d="M59.1135 16.5519C59.0678 20.8983 59.0121 25.2425 58.9863 29.5889C58.9823 30.1517 58.8531 30.4613 58.3163 30.7508C57.372 31.2614 56.7815 32.1138 56.7477 33.2496C56.7139 34.3191 56.6921 35.3886 56.7159 36.4581C56.7298 37.029 56.6344 37.2803 55.9664 37.2723C51.9326 37.22 47.9008 37.222 43.867 37.206C43.7418 32.9843 43.2487 28.7144 44.9803 24.6797C46.6583 20.7716 49.5907 18.2708 53.6662 17.139C55.1334 16.7309 56.6046 16.3851 58.1274 16.2946C58.4893 16.2725 58.8591 16.176 59.1155 16.5499L59.1135 16.5519Z" fill="#EDEDED"/>
<path d="M73.9643 22.9731C76.5727 27.2711 75.9166 32.0376 75.8987 36.7136C75.8987 37.2162 75.674 37.3207 75.2307 37.3147C71.3043 37.2624 67.3758 37.2142 63.4474 37.2001C62.7953 37.1981 62.6422 36.9388 62.7297 36.3598C62.8072 35.8411 62.8351 35.3164 62.9186 34.7998C63.2327 32.8498 62.4971 31.4064 60.8609 30.3891C60.6959 26.5173 60.8212 22.6434 60.8172 18.7715C60.8172 18.5705 60.8192 18.3715 60.8251 18.1704C60.8768 16.2405 60.3222 16.0857 62.8987 16.4496C66.1432 16.9079 69.1015 17.9493 71.6064 20.1687C72.5369 20.9929 73.2128 22.0101 73.9643 22.9751V22.9731Z" fill="#EDEDED"/>
</svg>
