<svg width="275" height="86" viewBox="0 0 275 86" fill="none" xmlns="http://www.w3.org/2000/svg">
<path d="M64.6984 79.0546C60.5544 81.8083 56.0333 83.6303 51.1859 84.6684C42.7494 86.4746 34.4496 85.9251 26.5054 82.5903C12.7116 76.7992 4.09529 66.387 0.975064 51.6808C-1.46328 40.1893 0.689808 29.3319 7.22919 19.5915C14.3 9.05526 24.2312 2.77961 36.7766 1.11911C47.5889 -0.310938 57.5983 2.15914 66.5076 8.56676C74.6843 14.4465 80.1745 22.3019 82.8258 32.1093C83.0974 33.1139 83.3768 34.1283 83.4334 35.1802C83.4549 35.8853 83.1286 35.9622 82.5816 35.6687C81.9368 35.322 81.3057 34.9359 80.6336 34.6483C78.4571 33.7186 76.2766 32.7554 74.1783 31.7016C71.396 30.303 68.5279 29.0936 65.7554 27.6754C62.5902 26.0562 59.2121 24.8783 56.0489 23.2336C55.3123 22.2881 54.6461 21.2914 53.7317 20.4838C51.2719 18.3092 48.3646 17.2889 45.174 16.8397C42.6419 16.4832 43.187 16.6369 43.1362 18.5259C43.1304 18.7228 43.1284 18.9178 43.1284 19.1148C43.1323 22.9086 43.0092 26.7043 43.1714 30.498C42.9135 30.1455 43.0268 29.7397 43.0268 29.3576C43.0209 25.3983 43.0307 21.4411 43.0209 17.4819C43.0209 17.1628 43.2202 16.6428 42.6986 16.6053C42.2902 16.5758 41.6982 16.2252 41.452 16.9402C41.2 16.5738 40.8366 16.6684 40.481 16.69C38.9844 16.7787 37.5386 17.1175 36.0967 17.5173C32.0914 18.6263 29.2095 21.0767 27.5605 24.9059C25.8587 28.8572 26.3452 33.043 26.4683 37.1795C26.4664 37.796 26.4644 38.4145 26.4624 39.031C26.3394 44.8911 25.933 50.7787 26.4097 56.6092C27.1619 65.7902 33.6564 68.7074 40.3892 69.4264C41.8897 69.5859 43.4312 69.3535 44.9533 69.3023C44.4961 69.6549 43.9021 69.3082 43.3589 69.5997C44.0877 69.7691 44.7618 69.6627 45.4397 69.84C46.9168 70.2241 48.1731 71.0652 49.5545 71.6404C51.01 72.2471 52.5262 72.7119 53.9662 73.3245C56.4319 74.3744 58.753 75.7631 61.1874 76.8937C62.0139 77.2778 62.7895 77.8786 63.7567 77.9101C64.5167 77.9357 64.7922 78.3257 64.6964 79.0486L64.6984 79.0546Z" fill="#C5222B"/>
<path d="M41.4539 16.9442C41.7001 16.2292 42.2902 16.5798 42.7005 16.6094C43.2202 16.6468 43.0209 17.1668 43.0228 17.4859C43.0326 21.4451 43.0228 25.4024 43.0287 29.3616C43.0287 29.7437 42.9134 30.1495 43.1733 30.5021C44.7813 31.4988 45.5042 32.9131 45.1955 34.8237C45.1134 35.33 45.0861 35.846 45.0099 36.3523C44.9259 36.9196 45.0743 37.1736 45.7152 37.1756C49.5759 37.1894 53.4347 37.2387 57.2954 37.2879C57.7311 37.2938 57.9499 37.1894 57.9519 36.6989C57.9675 32.1173 58.6142 27.447 56.0508 23.2356C59.214 24.8804 62.5922 26.0583 65.7573 27.6774C68.5298 29.0957 71.398 30.3051 74.1802 31.7036C76.2766 32.7594 78.459 33.7207 80.6355 34.6504C81.3076 34.938 81.9368 35.3221 82.5835 35.6707C83.1306 35.9642 83.4568 35.8874 83.4353 35.1822C84.252 38.2452 84.508 41.3771 84.3556 44.5268C83.8886 54.1096 80.7586 62.7135 74.7859 70.2065C71.9587 73.754 68.6411 76.7756 64.7003 79.0546C64.796 78.3317 64.5206 77.9398 63.7605 77.9161C62.7934 77.8846 62.0177 77.2838 61.1913 76.8997C58.7568 75.7691 56.4357 74.3804 53.97 73.3305C52.5301 72.7179 51.0159 72.2531 49.5583 71.6464C48.1789 71.0712 46.9207 70.2301 45.4436 69.846C44.7656 69.6687 44.0916 69.7771 43.3628 69.6057C43.906 69.3122 44.4999 69.6609 44.9571 69.3083C45.3401 69.2354 45.7211 69.1586 46.104 69.0877C49.7967 68.4002 53.04 66.9308 55.3162 63.7496C57.1332 61.2106 57.8972 58.3407 57.9108 55.258C57.9343 50.1484 57.8913 45.0389 57.9167 39.9293C57.9206 39.2498 57.6822 39.0981 57.0844 39.1001C53.3155 39.1178 49.5466 39.1198 45.7797 39.1119C45.3244 39.1119 45.0939 39.3128 44.8731 39.693C43.525 42.0193 40.8483 41.9799 39.5451 39.6142C39.3536 39.2675 39.1719 39.0351 38.746 39.0351C34.6528 39.041 30.5595 39.0351 26.4683 39.0351C26.4702 38.4185 26.4722 37.8 26.4741 37.1835C30.4384 37.1993 34.4027 37.1973 38.365 37.2485C39.0215 37.2564 39.1152 37.0121 39.1016 36.4507C39.0762 35.4028 39.0996 34.3549 39.1328 33.307C39.168 32.1941 39.7483 31.357 40.6744 30.8586C41.2019 30.575 41.3289 30.2716 41.3328 29.7201C41.3582 25.4615 41.4129 21.2048 41.4578 16.9462L41.4539 16.9442Z" fill="#791A25"/>
<path d="M26.4645 39.0371C30.5577 39.0371 34.6509 39.043 38.7422 39.0371C39.17 39.0371 39.3517 39.2676 39.5413 39.6162C40.8425 41.9819 43.5192 42.0213 44.8693 39.695C45.0901 39.3148 45.3206 39.112 45.7759 39.1139C49.5447 39.1218 53.3136 39.1198 57.0806 39.1021C57.6784 39.1001 57.9168 39.2518 57.9129 39.9314C57.8875 45.0409 57.9305 50.1505 57.907 55.26C57.8934 58.3427 57.1294 61.2126 55.3124 63.7517C53.0362 66.9308 49.7929 68.4023 46.1002 69.0897C45.7172 69.1606 45.3363 69.2355 44.9533 69.3103C43.4293 69.3615 41.8878 69.5959 40.3873 69.4344C33.6545 68.7155 27.16 65.7982 26.4078 56.6172C25.9311 50.7867 26.3375 44.9011 26.4605 39.0391L26.4645 39.0371Z" fill="#EDEDED"/>
<path d="M41.454 16.9441C41.4091 21.2028 41.3544 25.4594 41.329 29.718C41.3251 30.2696 41.1981 30.5729 40.6706 30.8566C39.7425 31.3569 39.1622 32.192 39.129 33.305C39.0958 34.3529 39.0743 35.4008 39.0977 36.4487C39.1114 37.0081 39.0176 37.2543 38.3612 37.2464C34.3969 37.1952 30.4346 37.1972 26.4703 37.1814C26.3472 33.045 25.8627 28.8612 27.5644 24.9079C29.2134 21.0787 32.0953 18.6283 36.1006 17.5193C37.5425 17.1195 38.9883 16.7807 40.4849 16.692C40.8405 16.6704 41.2039 16.5758 41.456 16.9422L41.454 16.9441Z" fill="#EDEDED"/>
<path d="M56.049 23.2353C58.6124 27.4466 57.9676 32.1169 57.95 36.6986C57.95 37.191 57.7293 37.2934 57.2936 37.2875C53.4348 37.2363 49.5741 37.189 45.7134 37.1752C45.0725 37.1733 44.9221 36.9192 45.008 36.3519C45.0842 35.8437 45.1116 35.3296 45.1937 34.8234C45.5024 32.9127 44.7794 31.4984 43.1715 30.5017C43.0093 26.708 43.1324 22.9122 43.1285 19.1185C43.1285 18.9215 43.1304 18.7265 43.1363 18.5295C43.1871 16.6386 42.642 16.4869 45.1741 16.8434C48.3627 17.2925 51.27 18.3128 53.7318 20.4875C54.6462 21.2951 55.3105 22.2918 56.049 23.2372V23.2353Z" fill="#EDEDED"/>
<path d="M98.0228 26.5552C98.0228 22.071 98.0538 17.5868 98.0003 13.1026C97.989 12.0809 98.2818 11.8056 99.2784 11.8624C101.004 11.9589 102.741 11.956 104.469 11.8851C105.489 11.8453 105.717 12.22 105.708 13.1963C105.635 21.3132 105.494 29.433 105.79 37.55C105.829 38.6313 105.922 39.7211 106.116 40.7826C106.62 43.5554 108.092 45.0056 110.846 45.437C112.422 45.6839 114.027 45.6896 115.606 45.4626C118.154 45.0993 119.871 43.3085 120.389 40.6066C120.735 38.7902 120.791 36.9483 120.797 35.1064C120.817 27.838 120.856 20.5668 120.797 13.2984C120.786 12.0383 121.177 11.7772 122.312 11.8595C124.082 11.9872 125.867 11.9986 127.643 11.9958C128.308 11.9958 128.561 12.1859 128.547 12.8756C128.361 21.9348 128.896 30.9996 128.285 40.0503C128.125 42.4145 127.393 44.6651 126.385 46.8135C124.803 50.1908 122.033 51.9192 118.475 52.3932C114.843 52.8757 111.183 52.8586 107.549 52.3932C103.417 51.8625 100.81 49.4019 99.4304 45.5222C98.324 42.4116 98.0876 39.1677 98.0566 35.9039C98.0285 32.7876 98.051 29.6742 98.051 26.558H98.02L98.0228 26.5552Z" fill="black"/>
<path d="M215.357 30.6962C215.357 37.4906 215.343 44.285 215.374 51.0794C215.379 52.0586 215.219 52.5382 214.084 52.4304C212.832 52.3112 211.548 52.3026 210.301 52.4474C209.071 52.5893 208.679 52.0415 208.443 50.9631C208.099 49.3766 208.051 49.4078 206.638 50.3188C204.001 52.0245 201.109 52.8334 197.979 52.6404C193.903 52.3878 191.217 49.842 190.235 45.3323C189.125 40.2351 189.193 35.1066 190.13 30.0066C190.854 26.0701 193.013 22.9113 198.241 22.7524C201.025 22.6673 203.595 23.3172 206.188 24.1374C207.683 24.6113 207.739 24.5177 207.745 22.9653C207.756 18.6258 207.804 14.2835 207.776 9.94408C207.77 9.16076 207.992 8.97912 208.719 9.00183C210.543 9.05575 212.373 9.10967 214.191 9.02453C215.241 8.97628 215.413 9.3793 215.407 10.3159C215.374 17.1103 215.39 23.9047 215.39 30.6991C215.379 30.6991 215.368 30.6991 215.357 30.6991V30.6962ZM207.776 37.0678H207.722C207.722 34.8966 207.719 32.7226 207.722 30.5515C207.722 29.9924 207.646 29.6121 206.959 29.4361C204.944 28.9253 202.9 28.8231 200.839 28.7862C199.178 28.7578 198.179 29.6632 197.785 31.1787C196.754 35.1293 196.915 39.1197 197.579 43.1072C197.655 43.5613 197.88 44.0041 198.109 44.4127C198.838 45.7239 199.876 46.5271 201.464 46.4136C203.246 46.283 204.884 45.6331 206.548 45.0542C207.5 44.7221 207.823 44.1602 207.792 43.1583C207.725 41.1291 207.773 39.097 207.773 37.0678H207.776Z" fill="black"/>
<path d="M244.242 41.0635C244.242 44.4636 244.22 47.8636 244.256 51.2636C244.265 52.152 244.059 52.5351 243.08 52.4415C242.013 52.3364 240.923 52.3506 239.854 52.4415C238.432 52.5635 237.616 51.959 237.354 50.5882C237.137 49.4473 236.687 49.365 235.775 50.0234C232.715 52.2399 229.322 53.2106 225.567 52.4272C222.014 51.6893 219.765 48.9988 219.61 45.3689C219.557 44.1428 219.562 42.914 219.593 41.6879C219.706 37.1044 222.529 34.499 227.132 34.2748C229.891 34.1414 232.658 34.1953 235.423 34.2322C236.459 34.2464 236.965 34.025 236.557 32.8699C236.453 32.5748 236.54 32.2143 236.535 31.8851C236.501 29.5607 235.73 28.6752 233.435 28.7178C229.55 28.7888 225.666 28.9562 221.786 29.1605C220.818 29.2116 220.356 29.0272 220.542 27.9714C220.59 27.6961 220.553 27.4066 220.553 27.1228C220.562 24.2166 220.565 24.2336 223.318 23.5922C227.464 22.6273 231.681 22.5137 235.896 22.7237C238.916 22.8742 241.568 23.9413 243.184 26.7765C243.907 28.0423 244.13 29.4529 244.152 30.8691C244.2 34.2691 244.169 37.6692 244.169 41.0692C244.192 41.0692 244.217 41.0692 244.24 41.0692L244.242 41.0635ZM236.712 41.6028C236.712 41.6028 236.695 41.6028 236.684 41.6028C236.684 41.1316 236.63 40.6548 236.695 40.1922C236.864 38.9747 236.36 38.7845 235.254 38.9662C233.742 39.2159 232.199 39.2925 230.665 39.3748C227.501 39.5423 227.36 39.9084 227.25 42.9537C227.231 43.4702 227.25 43.9896 227.293 44.5061C227.391 45.7719 228.022 46.4332 229.345 46.5183C231.58 46.6631 233.556 45.9308 235.516 44.9801C236.388 44.5572 236.83 44.0066 236.72 43.0133C236.67 42.5478 236.712 42.0739 236.712 41.6028Z" fill="black"/>
<path d="M185.221 40.6861C185.221 44.2253 185.204 47.7672 185.235 51.3063C185.241 52.1152 185.086 52.5097 184.154 52.4387C182.944 52.3451 181.722 52.3905 180.506 52.4188C179.371 52.4444 178.687 52.0329 178.417 50.8295C178.051 49.1976 177.969 49.2288 176.576 50.1824C173.003 52.6289 169.169 53.5399 165.025 51.8768C162.472 50.8522 160.955 48.8627 160.684 46.1012C160.521 44.4211 160.555 42.6984 160.696 41.0125C161.036 36.9257 163.756 34.4196 167.981 34.2749C170.833 34.1784 173.693 34.1784 176.548 34.2153C177.502 34.2266 177.752 33.9457 177.665 32.9921C177.291 28.9081 176.97 28.5618 172.846 28.6838C169.476 28.7832 166.109 28.9421 162.745 29.1379C161.782 29.1947 161.29 29.0046 161.543 27.9318C161.585 27.7501 161.566 27.5571 161.571 27.367C161.681 24.2224 161.675 24.1997 164.811 23.5015C168.913 22.5876 173.077 22.4741 177.246 22.7778C181.477 23.0871 185.379 25.5506 185.187 31.485C185.089 34.5502 185.17 37.621 185.17 40.689H185.218L185.221 40.6861ZM177.603 41.5745C177.603 40.916 177.589 40.2576 177.606 39.5992C177.62 39.0628 177.423 38.8414 176.857 38.8953C174.825 39.0855 172.784 39.2189 170.751 39.4175C169.741 39.5169 168.845 39.8603 168.384 40.899C166.886 44.2622 168.617 46.8108 172.176 46.4844C173.262 46.385 174.265 46.0274 175.241 45.5648C176.925 44.7664 177.711 43.4363 177.6 41.5745H177.603Z" fill="black"/>
<path d="M261.026 22.8769C263.608 22.8797 265.747 22.9734 267.839 23.6091C271.194 24.6308 273.244 26.9013 274.055 30.2701C275.265 35.2935 275.333 40.3567 274.17 45.4028C273.218 49.5351 270.46 51.7176 266.428 52.3335C263.081 52.8443 259.709 52.8301 256.381 52.1376C252.33 51.2976 249.937 48.7149 249.059 44.6933C248.082 40.2034 248.167 35.6937 249.045 31.2067C250.016 26.2315 253.062 23.5126 258.09 23.0273C259.208 22.9194 260.331 22.9081 261.029 22.874L261.026 22.8769ZM267.408 36.9368C267.326 35.7618 267.281 34.584 267.158 33.4119C266.865 30.6277 265.803 29.2683 263.205 29.0185C258.951 28.6098 256.429 29.132 256.094 34.5329C255.953 36.792 255.917 39.0568 256.114 41.3131C256.457 45.2609 257.733 46.4444 261.62 46.487C262.228 46.4926 262.836 46.4898 263.442 46.4387C265.516 46.2656 266.383 45.5703 266.873 43.5382C267.397 41.3727 267.433 39.1562 267.408 36.9368Z" fill="black"/>
<path d="M141.283 46.3481C143.203 46.3481 145.123 46.3679 147.042 46.3424C149.227 46.3112 149.511 46.0132 149.641 43.7995C149.773 41.5659 149.404 41.1685 147.149 41.143C144.529 41.1146 141.899 41.1941 139.284 41.0437C135.317 40.8166 133.06 38.4553 132.767 34.4593C132.604 32.2399 132.525 30.0177 133.043 27.8352C133.69 25.1134 135.624 23.1523 138.287 23.0388C143.802 22.8032 149.334 22.65 154.781 23.9612C155.598 24.157 155.899 24.4777 155.826 25.2809C155.761 25.9847 155.654 26.7113 155.755 27.3981C155.992 29.0215 155.192 29.2003 153.838 29.1719C150.046 29.0953 146.251 29.1435 142.457 29.1776C140.57 29.1946 140.438 29.3621 140.362 31.2636C140.244 34.2493 140.404 34.3883 143.436 34.4905C146.237 34.587 149.055 34.1471 151.837 34.7914C155.065 35.5406 156.729 37.4308 157.067 40.7627C157.315 43.2177 157.405 45.6754 156.777 48.0821C156.116 50.6052 154.491 52.3478 151.884 52.4642C146.277 52.7168 140.661 52.7338 135.112 51.5645C134.127 51.3573 133.865 50.8379 133.837 49.8928C133.73 46.2743 133.704 46.2828 137.204 46.3339C138.56 46.3538 139.92 46.3367 141.277 46.3367C141.277 46.3367 141.277 46.3396 141.277 46.3424L141.283 46.3481Z" fill="black"/>
<path d="M175.624 69.7907C175.624 67.9488 175.624 66.1097 175.624 64.2678C175.624 63.7541 175.486 63.0843 176.26 63.1269C177.071 63.1695 178.189 62.5252 178.631 63.5753C179.104 64.6992 179.582 64.4722 180.294 63.9698C182.344 62.5252 184.374 62.4599 186.296 64.1855C187.008 64.8241 187.538 64.2735 188.047 63.9783C189.303 63.2518 190.595 62.7977 192.059 63.0105C193.959 63.2858 195.082 64.2735 195.313 66.175C195.704 69.4161 195.307 72.6828 195.49 75.9352C195.521 76.4688 195.155 76.5028 194.758 76.5568C192.219 76.8917 192.031 76.7327 192.076 74.1501C192.118 71.837 192.18 69.5268 192.048 67.2109C191.994 66.2602 191.622 65.8231 190.693 65.8571C190.508 65.8628 190.319 65.8486 190.133 65.86C188.195 65.983 187.219 67.0227 187.206 68.979C187.194 71.1502 187.158 73.3242 187.231 75.4953C187.259 76.3382 186.997 76.5284 186.215 76.5312C183.701 76.5369 183.664 76.5653 183.794 73.9627C183.906 71.6951 183.864 69.436 183.754 67.1683C183.709 66.246 183.354 65.965 182.473 65.9395C179.301 65.8572 179.087 66.0274 179.073 69.2231C179.064 71.2524 179.053 73.2844 179.129 75.3108C179.163 76.1935 179.005 76.5539 178.011 76.5426C175.534 76.5142 175.537 76.571 175.557 74.0337C175.568 72.6175 175.557 71.2013 175.557 69.7851C175.579 69.7851 175.602 69.7851 175.624 69.7851V69.7907Z" fill="black"/>
<path d="M249.144 71.4253C249.144 72.6513 249.172 73.8774 249.129 75.1035C249.113 75.603 249.504 76.392 248.665 76.5112C247.868 76.6218 246.81 76.917 246.314 76.111C245.661 75.0495 245.166 75.3589 244.425 75.8981C242.891 77.0192 240.217 76.9539 239.065 75.8243C237.765 74.55 237.458 71.2096 238.502 69.7309C239.218 68.7177 240.282 68.3772 241.425 68.292C242.449 68.2154 243.482 68.275 244.51 68.2353C245.042 68.2126 245.864 68.556 245.768 67.4803C245.701 66.6999 245.765 65.7633 244.589 65.769C242.905 65.7775 241.225 65.8286 239.541 65.8598C239.02 65.8711 238.283 66.1918 238.286 65.2723C238.289 64.5855 238.117 63.7454 239.218 63.5127C241.475 63.0387 243.719 62.6783 246.024 63.1409C247.942 63.524 248.84 64.3755 248.983 66.3451C249.107 68.0309 249.008 69.7338 249.008 71.4281C249.051 71.4281 249.096 71.4281 249.138 71.4281L249.144 71.4253ZM241.377 72.0582C241.334 73.8348 241.658 74.1271 243.266 73.8405C243.767 73.7497 244.268 73.6106 244.749 73.4403C245.962 73.0089 245.968 71.8936 245.847 70.957C245.704 69.8416 244.76 70.4774 244.141 70.466C243.767 70.4603 243.392 70.5199 243.021 70.5086C241.85 70.4632 241.233 70.9513 241.382 72.061L241.377 72.0582Z" fill="black"/>
<path d="M208.465 71.2239C208.465 72.4954 208.51 73.7697 208.443 75.0383C208.417 75.5293 208.857 76.3325 208.068 76.4801C207.243 76.6362 206.143 76.9966 205.597 76.1026C204.946 75.0383 204.527 75.3222 203.764 75.9267C202.334 77.0591 200.645 76.9087 199.099 76.3155C197.745 75.7961 197.354 74.4877 197.275 73.0715C197.078 69.5381 198.156 68.3206 201.647 68.2468C202.348 68.2326 203.057 68.3007 203.747 68.2156C204.228 68.156 205.098 68.7151 205.081 67.5912C205.067 66.6773 205.053 65.7209 203.73 65.7549C202.097 65.8003 200.462 65.8259 198.826 65.8798C198.322 65.8968 197.658 66.1182 197.681 65.3207C197.697 64.6906 197.458 63.8137 198.432 63.5639C200.85 62.9452 203.285 62.5564 205.766 63.1552C207.384 63.5469 208.341 64.7928 208.426 66.7C208.491 68.2042 208.44 69.7141 208.44 71.2239H208.465ZM200.698 72.03C200.693 73.8492 200.994 74.1103 202.691 73.8378C202.967 73.7924 203.24 73.7215 203.511 73.6505C204.825 73.3099 205.47 72.2542 205.087 70.872C204.752 69.6687 203.846 70.5541 203.209 70.4718C202.846 70.4236 202.466 70.5314 202.095 70.5428C201.07 70.5769 200.484 70.9912 200.698 72.0271V72.03Z" fill="black"/>
<path d="M163.024 69.8247C163.316 76.3126 159.769 77.5812 154.021 76.2133C152.557 75.8642 151.665 74.6552 151.318 73.2106C150.772 70.9316 150.795 68.61 151.369 66.3367C151.935 64.1003 154.165 62.8373 157.056 62.9934C157.523 63.019 157.987 63.0871 158.452 63.141C161.23 63.4645 162.63 64.8949 162.894 67.7075C162.962 68.4113 162.981 69.1209 163.024 69.8275V69.8247ZM154.426 69.8105C154.398 69.8105 154.37 69.8134 154.342 69.8162C154.415 70.6591 154.412 71.5191 154.578 72.3421C154.826 73.5653 155.727 73.9768 156.878 73.9314C157.976 73.886 159.043 73.8378 159.347 72.3989C159.702 70.7102 159.744 69.0414 159.375 67.3556C159.246 66.7681 159.001 66.2884 158.441 66.0359C156.36 65.0964 154.587 66.1409 154.432 68.4C154.398 68.8683 154.426 69.3422 154.426 69.8105Z" fill="black"/>
<path d="M127.759 69.7851C127.759 67.9942 127.742 66.2006 127.77 64.4097C127.779 63.9499 127.46 63.161 128.215 63.1468C129.074 63.1326 130.276 62.582 130.751 63.6605C131.193 64.6623 131.652 64.4211 132.221 64.0266C133.251 63.3142 134.338 62.8686 135.616 62.9595C137.857 63.1184 139.321 64.5999 139.343 66.8647C139.371 69.6942 139.318 72.5238 139.351 75.3506C139.36 76.185 139.132 76.6164 138.248 76.5028C138.155 76.4915 138.062 76.5028 137.966 76.5028C135.475 76.4943 135.889 76.7753 135.88 74.4395C135.872 72.0357 135.866 69.629 135.928 67.2279C135.956 66.1637 135.5 65.772 134.518 65.8288C134.332 65.8401 134.144 65.8288 133.958 65.843C131.221 66.0672 131.196 66.0899 131.179 68.8712C131.168 70.9941 131.114 73.117 131.19 75.2342C131.227 76.2219 130.957 76.6618 129.957 76.5341C129.774 76.5113 129.58 76.5028 129.397 76.5341C128.074 76.7611 127.579 76.2871 127.688 74.8766C127.821 73.1908 127.719 71.4851 127.719 69.7879H127.75L127.759 69.7851Z" fill="black"/>
<path d="M142.918 71.0791C142.918 69.6657 142.887 68.2523 142.93 66.8389C142.952 66.0868 142.808 65.6952 141.936 65.7718C141.457 65.8144 140.675 65.9648 140.81 65.0027C140.908 64.2932 140.576 63.2544 141.905 63.3623C142.808 63.4361 143.053 62.9507 142.913 62.1419C142.904 62.0965 142.913 62.0482 142.91 62C142.642 56.9595 144.574 56.3437 148.875 56.9226C149.956 57.0674 150.153 57.7428 150.162 58.5772C150.173 59.6046 149.407 59.4258 148.754 59.3918C148.287 59.3662 147.819 59.3918 147.355 59.3605C146.693 59.3208 146.42 59.6784 146.389 60.2858C146.37 60.6632 146.417 61.0464 146.361 61.4153C146.161 62.7776 146.561 63.4502 148.067 63.1579C148.658 63.0416 149.494 62.894 149.3 64.0406C149.162 64.8551 149.677 66.1635 148.036 65.874C146.46 65.5958 146.195 66.3281 146.26 67.7386C146.372 70.2305 146.257 72.7337 146.31 75.2283C146.33 76.1536 146.167 76.5821 145.103 76.548C142.831 76.4771 142.834 76.5395 142.868 74.1896C142.882 73.1537 142.868 72.1178 142.868 71.0791H142.918Z" fill="black"/>
<path d="M229.027 12.4188C230.615 12.4017 231.757 12.8019 232.819 13.4206C234.902 14.6296 236.895 14.3912 238.905 13.2134C239.386 12.9324 239.91 12.1321 240.577 12.8047C241.47 13.7072 241.714 15.4612 241.154 16.1565C238.84 19.023 235.437 19.9142 232.295 18.251C229.987 17.0307 227.859 17.1782 225.637 18.3504C225.193 18.5859 224.57 19.5282 224.143 18.7136C223.675 17.8225 222.411 16.8405 223.425 15.6911C224.99 13.9173 226.763 12.362 229.027 12.4159V12.4188Z" fill="black"/>
<path d="M233.081 73.8749C233.824 73.8153 234.342 73.7046 234.846 73.7529C235.344 73.8011 236.191 73.1569 236.273 74.207C236.343 75.1066 236.464 76.2135 235.119 76.3923C233.078 76.6619 231.028 76.8918 228.976 76.5172C227.402 76.2305 226.558 75.0868 226.158 73.6848C225.477 71.2922 225.435 68.8401 226.009 66.4107C226.524 64.2367 227.895 63.1412 230.099 63.0646C231.887 63.0022 233.635 63.3427 235.389 63.6379C236.262 63.7826 236.188 64.3815 236.186 65.0115C236.186 65.7494 235.836 65.9651 235.133 65.9481C233.638 65.914 232.143 65.968 230.648 65.968C229.99 65.968 229.624 66.2489 229.483 66.9216C229.08 68.8344 229.041 70.7445 229.449 72.6574C229.621 73.4605 230.108 73.8721 230.927 73.8749C231.721 73.8749 232.517 73.8749 233.083 73.8749H233.081Z" fill="black"/>
<path d="M212.038 69.4132C212.038 68.8456 212.024 68.2808 212.04 67.7132C212.074 66.6404 212.468 65.332 210.543 65.7293C210.152 65.8088 209.8 65.5222 209.881 65.034C209.969 64.5147 209.769 63.7058 210.546 63.6632C212.156 63.5781 212.333 62.5876 212.39 61.2792C212.468 59.4941 213.169 59.0541 214.923 59.4345C215.326 59.5224 215.469 59.7296 215.452 60.1156C215.435 60.4931 215.43 60.8705 215.433 61.248C215.452 63.1297 215.455 63.1609 217.316 63.1297C218.031 63.1183 218.572 63.1637 218.383 64.0634C218.239 64.7474 218.828 65.9621 217.308 65.7435C215.756 65.5222 215.286 66.2062 215.43 67.7132C215.573 69.2117 215.492 70.7301 215.528 72.2399C215.551 73.2588 215.976 73.9939 217.071 74.0677C218.329 74.15 218.293 75.0298 218.217 75.8954C218.127 76.937 217.296 76.5822 216.699 76.6333C216.562 76.6447 216.421 76.6021 216.28 76.5907C213.116 76.3296 212.277 75.481 212.083 72.2428C212.026 71.3034 212.074 70.3554 212.074 69.4104C212.063 69.4104 212.049 69.4104 212.038 69.4104V69.4132Z" fill="black"/>
<path d="M165.197 69.7482C165.197 67.9091 165.256 66.0671 165.175 64.2309C165.129 63.2518 165.439 62.9538 166.362 63.1155C167.204 63.2631 168.268 62.7579 168.57 64.2082C168.713 64.8922 169.262 64.3331 169.544 64.1514C170.532 63.5129 171.494 62.9367 172.767 63.0474C173.49 63.1099 173.941 63.1978 173.851 64.0606C173.811 64.4324 173.828 64.8184 173.879 65.1902C174.022 66.2516 173.583 66.5269 172.544 66.5354C168.826 66.5695 168.764 66.666 168.682 70.3016C168.643 72.0442 168.584 73.7924 168.631 75.535C168.654 76.3893 168.33 76.5908 167.57 76.5567C164.572 76.4177 165.141 77.0052 165.16 74.1358C165.169 72.6742 165.16 71.2126 165.16 69.751H165.197V69.7482Z" fill="black"/>
<path d="M220.061 69.6718C220.061 67.7419 220.086 65.812 220.047 63.8821C220.033 63.2833 220.142 63.0789 220.795 63.0562C223.577 62.9597 223.594 62.9313 223.585 65.724C223.574 68.9254 223.495 72.1268 223.509 75.3281C223.518 77.3318 222.045 76.3328 221.195 76.5343C220.238 76.7614 220.027 76.2023 220.052 75.3196C220.109 73.438 220.069 71.5535 220.069 69.669H220.061V69.6718Z" fill="black"/>
<path d="M122.07 69.68C122.07 67.7444 122.112 65.8088 122.044 63.8761C122.025 63.2971 122.126 63.0786 122.686 63.124C122.734 63.1268 122.779 63.1296 122.827 63.1325C125.78 63.3624 125.436 62.4372 125.459 65.7237C125.479 68.9336 125.425 72.1463 125.484 75.3562C125.501 76.2927 125.248 76.5652 124.319 76.551C121.87 76.5141 121.873 76.5567 121.895 74.0733C121.909 72.6089 121.895 71.1473 121.895 69.6828C121.954 69.6828 122.01 69.6828 122.07 69.6828V69.68Z" fill="black"/>
<path d="M123.623 61.6653C121.842 61.6625 121.92 61.6568 121.827 59.6191C121.768 58.3504 122.376 58.2511 123.353 58.2766C125.532 58.3306 125.535 58.3022 125.524 60.2207C125.518 61.1876 124.885 61.6691 123.623 61.6653Z" fill="black"/>
<path d="M221.744 61.6965C219.695 61.7816 220.137 61.8894 220.002 59.5594C219.883 57.4961 221.42 58.5405 222.251 58.3248C223.357 58.0353 223.706 58.5632 223.672 59.6786C223.608 61.688 223.664 61.6908 221.744 61.6993V61.6965Z" fill="black"/>
<path d="M205.583 57.862C205.951 57.9301 206.497 57.6179 206.717 58.0493C206.976 58.5602 206.424 58.8724 206.129 59.1987C205.211 60.2091 204.507 61.5345 202.824 61.4323C202.317 61.4011 202.058 61.2478 202.326 60.7852C202.835 59.8997 203.387 59.037 203.989 58.2139C204.372 57.6917 205.017 57.9131 205.583 57.862Z" fill="black"/>
</svg>
